<?xml version="1.0" encoding="UTF-8"?>
<!-- data fairy wordmark — cropped from Logo_2.svg (Amber) -->
<svg xmlns="http://www.w3.org/2000/svg" viewBox="700 455 530 165">
  <g>
    <path fill="#1c1917" d="M742.89,589.99c-8.23,0-14.9-3.12-20-9.36-5.09-6.24-7.64-14.63-7.64-25.16s2.61-18.49,7.83-24.9c5.22-6.41,11.91-9.61,20.06-9.61s14.31,3.23,18.47,9.68h.38v-33.63h17.33v91.07h-16.69v-8.54h-.26c-4.25,6.97-10.74,10.44-19.49,10.44ZM746.71,575.47c5.1,0,8.98-1.74,11.66-5.22,2.68-3.48,4.01-8.28,4.01-14.39,0-13.92-5.05-20.89-15.16-20.89-4.67,0-8.24,1.87-10.7,5.6-2.46,3.74-3.69,8.71-3.69,14.91s1.21,11.3,3.63,14.77c2.42,3.48,5.84,5.22,10.25,5.22Z"/>
    <path fill="#1c1917" d="M851.92,532.53v-11.47h9.05v-18.7h16.94v18.7h11.21v11.47h-11.21v36.31c0,4.33,2.17,6.5,6.5,6.5l5.1-.13v12.74c-2.64.17-6.24.26-10.83.26-5.01,0-9.21-1.21-12.61-3.63-3.39-2.41-5.09-6.43-5.09-12.04v-40.01h-9.05Z"/>
    <path fill="#1c1917" d="M961.34,533.04v-11.97h8.92v-4.19c0-7.64,2.63-13.08,7.9-16.3s12.31-4.37,21.14-3.44v13.38c-4.33-.17-7.37.21-9.11,1.15-1.74.93-2.61,3.02-2.61,6.24v3.16h11.72v11.97h-11.72v55.04h-17.32v-55.04h-8.92Z"/>
    <path fill="#d97706" d="M1033.3,521.06c-9,0-15.84,2.05-20.63,6.15-4.79,4.1-7.29,9.23-7.52,15.38h15.38c.57-6.15,4.79-9.12,12.65-9.12,3.53,0,6.27.68,8.09,2.05,1.94,1.37,2.85,3.3,2.85,5.7s-1.14,3.87-3.3,4.79c-2.17.8-6.38,1.71-12.53,2.62-8.32,1.14-14.7,3.3-19.26,6.38-4.67,3.08-6.95,7.98-6.95,14.59s2.05,11.28,6.27,14.81c4.1,3.42,9.69,5.24,16.52,5.24,5.24,0,9.23-.8,12.08-2.39,2.96-1.48,5.36-3.65,7.18-6.5l.11,7.29h16.52v-42.96c0-15.95-9.12-24.04-27.46-24.04ZM1044.46,565.05c0,3.42-1.37,6.27-4.1,8.77-2.74,2.51-6.5,3.65-11.28,3.65-6.72,0-10.14-2.73-10.14-8.2,0-2.96,1.03-5.01,3.08-6.5,1.94-1.37,5.47-2.62,10.37-3.76,6.27-1.37,10.26-2.73,12.08-3.76v9.8Z"/>
    <path fill="#1c1917" d="M926.98,521.06c-9,0-15.84,2.05-20.63,6.15-4.79,4.1-7.29,9.23-7.52,15.38h15.38c.57-6.15,4.79-9.12,12.65-9.12,3.53,0,6.27.68,8.09,2.05,1.94,1.37,2.85,3.3,2.85,5.7s-1.14,3.87-3.3,4.79c-2.17.8-6.38,1.71-12.53,2.62-8.32,1.14-14.7,3.3-19.26,6.38-4.67,3.08-6.95,7.98-6.95,14.59s2.05,11.28,6.27,14.81c4.1,3.42,9.69,5.24,16.52,5.24,5.24,0,9.23-.8,12.08-2.39,2.96-1.48,5.36-3.65,7.18-6.5l.11,7.29h16.52v-42.96c0-15.95-9.12-24.04-27.46-24.04ZM938.15,565.05c0,3.42-1.37,6.27-4.1,8.77-2.74,2.51-6.5,3.65-11.28,3.65-6.72,0-10.14-2.73-10.14-8.2,0-2.96,1.03-5.01,3.08-6.5,1.94-1.37,5.47-2.62,10.37-3.76,6.27-1.37,10.26-2.73,12.08-3.76v9.8Z"/>
    <path fill="#d97706" d="M1071.77,589.66v-68.6h17.33v68.6h-17.33Z"/>
    <path fill="#1c1917" d="M1117.29,521.83v10.45h.38c2.04-3.82,4.28-6.64,6.75-8.47,2.46-1.83,5.56-2.74,9.3-2.74,1.79,0,3.14.17,4.08.51v15.16h-.38c-5.86-.6-10.57.68-14.14,3.82-3.57,3.14-5.35,8.07-5.35,14.77v34.34h-17.33v-67.84h16.69Z"/>
    <path fill="#1c1917" d="M1148.6,608.37v-13.63h6.11c6.45,0,9.68-2.97,9.68-8.91,0-2.89-1.55-9.35-4.86-18.26l-17.58-46.49h18.21l9.68,29.42,4.21,14.27h.25c1.19-5.51,2.46-10.27,3.82-14.27l9.17-29.42h17.45l-22.9,67.56c-2.55,7.47-5.41,12.62-8.6,15.47-3.19,2.84-8.01,4.27-14.46,4.27h-10.19Z"/>
    <path fill="#1c1917" d="M818.84,521.06c-9,0-15.84,2.05-20.63,6.15-4.79,4.1-7.29,9.23-7.52,15.38h15.38c.57-6.15,4.79-9.12,12.65-9.12,3.53,0,6.27.68,8.09,2.05,1.94,1.37,2.85,3.3,2.85,5.7s-1.14,3.87-3.3,4.79c-2.17.8-6.38,1.71-12.53,2.62-8.32,1.14-14.7,3.3-19.26,6.38-4.67,3.08-6.95,7.98-6.95,14.59s2.05,11.28,6.27,14.81c4.1,3.42,9.69,5.24,16.52,5.24,5.24,0,9.23-.8,12.08-2.39,2.96-1.48,5.36-3.65,7.18-6.5l.11,7.29h16.52v-42.96c0-15.95-9.12-24.04-27.46-24.04ZM830.01,565.05c0,3.42-1.37,6.27-4.1,8.77-2.74,2.51-6.5,3.65-11.28,3.65-6.72,0-10.14-2.73-10.14-8.2,0-2.96,1.03-5.01,3.08-6.5,1.94-1.37,5.47-2.62,10.37-3.76,6.27-1.37,10.26-2.73,12.08-3.76v9.8Z"/>
  </g>
  <g>
    <path fill="#d97706" d="M1080.8,481.41c-3.89,7.18-9.78,13.08-16.97,16.97,7.18,3.89,13.08,9.78,16.97,16.97,3.89-7.19,9.78-13.08,16.97-16.97-7.18-3.89-13.08-9.78-16.97-16.97ZM1080.79,508.8v.14s0-.09,0-.14c-.02-5.72-4.71-10.4-10.43-10.42-.05,0-.09,0-.14,0h.14c5.72-.02,10.41-4.7,10.43-10.42,0-.05,0-.09,0-.14v.14c.02,5.72,4.71,10.4,10.43,10.42h.14s-.09,0-.14,0c-5.72.02-10.41,4.7-10.43,10.42Z"/>
    <path fill="#d97706" d="M1091.35,485.09v.09s0-.06,0-.09c-.01-3.67-3.02-6.67-6.69-6.68-.03,0-.06,0-.09,0h.09c3.67-.01,6.68-3.02,6.69-6.68,0-.03,0-.06,0-.09v.09c.01,3.67,3.02,6.67,6.69,6.68h.09s-.06,0-.09,0c-3.67.01-6.68,3.02-6.69,6.68Z"/>
    <path fill="#d97706" d="M1061.71,509.57v.05s0-.03,0-.05c0-1.89-1.56-3.45-3.46-3.45-.02,0-.03,0-.05,0h.05c1.9,0,3.45-1.56,3.46-3.45,0-.02,0-.03,0-.05v.05c0,1.89,1.56,3.45,3.46,3.45h.05s-.03,0-.05,0c-1.9,0-3.45,1.56-3.46,3.45Z"/>
  </g>
</svg>
