<?xml version="1.0" encoding="UTF-8"?>
<svg xmlns="http://www.w3.org/2000/svg" viewBox="0 0 100 100">
  <rect width="100" height="100" rx="22" fill="#d97706"/>
  <svg viewBox="760 375 395 395" x="10" y="10" width="80" height="80">
    <path fill="white" d="M982.25,437.79c-32.89,60.79-82.78,110.69-143.58,143.58,60.79,32.9,110.69,82.78,143.58,143.58,32.9-60.8,82.79-110.69,143.58-143.58-60.79-32.89-110.69-82.78-143.58-143.58ZM982.13,669.53v1.18c0-.39,0-.78,0-1.18-.16-48.36-39.82-87.99-88.23-88.15-.39,0-.78,0-1.17,0h1.17c48.41-.16,88.07-39.79,88.23-88.16,0-.39,0-.78,0-1.17v1.17c.16,48.36,39.83,88,88.23,88.16h1.18c-.4,0-.78,0-1.18,0-48.41.16-88.07,39.79-88.23,88.15Z"/>
    <path fill="white" d="M1071.54,468.88v.76c0-.25,0-.5,0-.76-.1-31.02-25.54-56.43-56.59-56.54-.25,0-.5,0-.75,0h.75c31.05-.1,56.49-25.52,56.59-56.54,0-.25,0-.5,0-.75v.75c.1,31.02,25.55,56.44,56.59,56.54h.76c-.26,0-.5,0-.76,0-31.05.1-56.49,25.52-56.59,56.54Z"/>
    <path fill="white" d="M820.75,676.07v.39c0-.13,0-.26,0-.39-.05-16.03-13.2-29.17-29.25-29.23-.13,0-.26,0-.39,0h.39c16.05-.05,29.2-13.19,29.25-29.23,0-.13,0-.26,0-.39v.39c.05,16.03,13.2,29.17,29.25,29.23h.39c-.13,0-.26,0-.39,0-16.05.05-29.2,13.19-29.25,29.23Z"/>
  </svg>
</svg>
