<svg xmlns="http://www.w3.org/2000/svg" width="1368" height="766" viewBox="0 0 1368 766">
<g>
<path d="M 610.55 583.50 C600.07,593.95 589.90,604.50 587.94,606.94 L 584.37 611.37 L 582.19 609.19 C579.63,606.63 579.52,605.14 581.43,598.85 C583.33,592.60 585.65,588.25 589.52,583.71 C591.71,581.16 593.13,578.07 593.91,574.21 C595.58,565.96 596.84,564.71 604.02,564.19 C609.54,563.79 610.33,563.43 613.28,559.96 C615.05,557.87 620.23,549.21 624.79,540.71 C629.35,532.21 634.86,522.87 637.04,519.95 C639.22,517.03 641.00,514.21 641.00,513.69 C641.00,512.42 635.14,513.28 619.00,516.90 C613.17,518.21 603.00,518.28 603.00,517.01 C603.00,515.83 608.41,512.39 616.20,508.65 C619.34,507.14 624.06,504.09 626.70,501.88 C631.19,498.12 631.79,497.90 636.00,498.51 C638.47,498.87 641.77,499.14 643.33,499.12 C647.27,499.05 658.36,493.63 660.73,490.62 C662.76,488.03 664.42,478.24 665.46,462.75 C666.05,453.80 665.48,453.33 659.06,457.58 C656.88,459.02 654.13,460.01 652.83,459.83 C650.83,459.55 650.43,458.79 650.00,454.58 C649.50,449.69 649.47,449.65 644.50,447.99 C637.37,445.62 637.53,443.77 645.19,439.92 C657.00,433.98 669.36,424.77 680.55,413.56 C695.76,398.33 697.93,393.30 697.98,373.19 C698.00,359.87 699.52,348.88 702.01,343.99 C702.99,342.06 706.32,337.66 709.40,334.20 C714.53,328.45 715.00,327.53 715.00,323.18 C715.00,314.81 711.43,312.28 704.35,315.64 C701.60,316.94 700.39,317.04 698.40,316.14 C697.03,315.51 694.61,315.00 693.02,315.00 C688.52,315.00 679.01,308.67 672.38,301.26 C665.47,293.53 664.00,291.15 664.00,287.62 C664.00,286.24 663.05,283.51 661.89,281.54 C659.92,278.20 659.89,277.82 661.41,275.50 C663.91,271.69 666.99,270.13 674.08,269.13 C680.95,268.16 685.26,265.80 695.79,257.28 C700.37,253.57 701.72,253.00 705.87,253.00 C713.15,253.00 719.48,257.58 723.06,265.44 C726.01,271.90 730.41,276.72 735.84,279.46 C739.61,281.36 742.64,287.12 743.62,294.22 C744.21,298.55 744.13,298.70 739.11,302.91 C734.93,306.41 734.00,307.76 734.02,310.34 C734.05,313.81 737.11,321.33 738.97,322.48 C740.51,323.44 744.40,319.76 748.46,313.50 C750.25,310.75 755.04,304.67 759.11,300.00 C776.61,279.92 782.34,271.28 785.95,259.50 C786.62,257.30 790.94,248.03 795.54,238.91 C806.28,217.61 808.04,213.08 809.07,204.20 C809.89,197.07 813.38,184.74 815.28,182.26 C816.98,180.03 818.23,182.13 817.59,186.15 C816.74,191.47 818.71,192.02 824.74,188.15 C832.99,182.85 833.85,182.09 839.53,174.96 C842.58,171.13 845.79,168.00 846.66,168.00 C847.92,168.00 847.74,168.66 845.78,171.25 C836.17,183.97 835.58,185.16 835.54,192.18 C835.49,200.31 833.71,203.15 825.90,207.54 C819.01,211.41 817.06,214.95 812.95,231.00 C804.17,265.32 793.08,288.50 766.20,328.73 L 752.69 348.96 L 755.84 355.81 C757.58,359.58 759.00,363.74 759.00,365.06 C759.00,366.38 756.11,373.32 752.58,380.48 C744.55,396.76 737.06,416.95 732.50,434.55 C729.53,446.06 729.00,449.77 729.00,459.15 C729.00,468.67 728.73,470.53 727.00,472.73 C725.63,474.47 725.00,476.78 725.00,480.10 C725.00,488.93 720.59,491.98 699.84,497.50 C693.68,499.14 692.01,500.70 686.04,510.42 C683.54,514.49 675.24,522.76 656.09,540.27 C641.52,553.60 621.03,573.05 610.55,583.50 ZM 673.55 352.14 C666.30,354.47 662.28,355.12 653.02,355.42 C638.19,355.90 634.98,355.55 620.50,351.93 C595.97,345.80 579.01,336.44 560.34,318.73 C542.81,302.10 526.28,275.65 518.01,251.00 C513.92,238.82 510.82,225.54 511.19,221.75 L 511.50 218.50 L 520.60 218.50 C525.61,218.50 530.79,219.00 532.10,219.62 C533.42,220.23 537.20,221.76 540.50,223.01 C573.74,235.64 611.40,262.73 661.59,310.09 C668.24,316.37 678.48,325.92 684.34,331.32 C690.20,336.72 695.00,341.55 695.00,342.06 C695.00,343.52 683.37,348.99 673.55,352.14 ZM 616.00 423.39 C607.49,425.25 594.67,426.01 588.92,425.01 C578.56,423.21 571.00,416.83 571.00,409.89 C571.00,394.75 591.63,379.89 620.05,374.56 C624.70,373.68 630.69,372.52 633.37,371.98 C636.04,371.43 643.47,370.52 649.87,369.95 C667.75,368.38 676.70,366.70 684.98,363.39 C687.19,362.51 689.00,361.38 689.00,360.89 C689.00,360.40 689.69,360.00 690.53,360.00 C691.87,360.00 691.85,360.40 690.39,363.25 C681.69,380.26 660.24,402.35 642.29,412.79 C634.86,417.12 623.15,421.84 616.00,423.39 ZM 857.84 167.00 C856.62,168.65 855.28,170.00 854.86,170.00 C854.44,170.00 852.68,167.95 850.96,165.44 C849.24,162.93 846.74,160.47 845.41,159.97 C842.11,158.71 842.38,157.84 846.75,155.50 C848.88,154.36 851.36,151.88 852.50,149.75 C854.99,145.09 856.25,145.03 857.86,149.48 C858.62,151.60 860.83,154.19 863.53,156.13 C865.95,157.87 867.67,159.72 867.35,160.25 C867.02,160.77 865.25,161.83 863.41,162.60 C861.56,163.37 859.06,165.35 857.84,167.00 Z" fill="rgb(17,25,44)"/>
<path d="M 0.00 0.00 L 1368.00 0.00 L 1368.00 766.00 L 0.00 766.00 ZM 578.95 611.72 C580.33,613.20 581.90,613.75 584.21,613.56 C588.73,613.18 589.02,613.10 588.88,612.25 C588.54,610.08 589.19,609.00 590.85,609.00 C591.86,609.00 593.50,608.11 594.48,607.02 C595.91,605.44 596.03,604.74 595.07,603.58 C594.08,602.39 594.39,601.85 596.80,600.60 C598.42,599.76 600.10,599.40 600.53,599.79 C600.97,600.18 601.03,599.99 600.67,599.37 C599.89,597.99 603.63,593.00 605.44,593.00 C606.16,593.00 607.80,591.46 609.09,589.58 C610.38,587.69 611.90,586.41 612.47,586.74 C613.04,587.06 613.16,586.94 612.74,586.48 C611.71,585.34 615.93,581.00 618.08,581.00 C619.09,581.00 620.23,579.79 620.82,578.08 C621.65,575.71 622.34,575.21 624.48,575.45 C627.64,575.79 630.01,573.74 629.35,571.22 C629.02,569.97 630.47,567.90 633.95,564.65 C636.74,562.03 639.39,560.12 639.83,560.39 C640.27,560.67 641.42,559.57 642.37,557.95 C643.50,556.03 644.93,555.00 646.43,555.00 C649.13,555.00 650.46,553.59 651.38,549.75 C651.74,548.24 652.48,547.00 653.03,547.00 C653.57,547.00 654.96,545.91 656.12,544.58 C657.27,543.25 659.23,541.91 660.46,541.60 C661.69,541.29 663.95,539.24 665.47,537.05 C666.99,534.86 669.12,532.78 670.21,532.43 C671.58,532.00 672.02,531.20 671.66,529.82 C671.29,528.40 671.55,528.00 672.57,528.39 C673.36,528.69 674.01,528.39 674.02,527.72 C674.03,526.85 674.24,526.82 674.77,527.62 C675.88,529.32 679.71,527.50 680.54,524.87 C681.30,522.47 687.06,513.93 690.15,510.61 C691.83,508.80 692.36,507.57 692.17,505.90 C692.13,505.57 693.14,505.50 694.42,505.74 C696.29,506.10 696.95,505.59 697.82,503.09 C698.65,500.71 699.49,500.00 701.49,500.00 C702.92,500.00 705.28,498.89 706.74,497.54 L 709.39 495.09 L 704.39 496.25 C712.98,493.82 718.17,491.79 721.19,489.30 L 721.14 489.35 C719.92,490.64 717.12,492.30 714.92,493.03 C710.86,494.37 708.39,496.23 711.89,495.32 C712.92,495.05 714.08,495.31 714.45,495.91 C714.82,496.51 715.34,497.00 715.62,497.00 C715.89,497.00 715.79,496.47 715.39,495.83 C714.91,495.05 715.21,494.87 716.31,495.29 C717.31,495.67 718.32,495.26 718.90,494.22 C719.42,493.28 720.17,492.83 720.56,493.22 C721.90,494.56 725.00,491.94 725.00,489.46 C725.00,486.98 724.32,486.47 722.58,487.95 C724.40,485.85 725.00,483.37 725.00,480.10 L 725.00 481.39 L 728.31 478.18 C730.98,475.60 731.67,474.08 731.86,470.46 C732.02,467.47 731.57,465.43 730.55,464.40 C729.15,463.01 729.00,463.21 729.00,466.52 C729.00,467.70 728.75,469.00 728.34,470.18 C728.88,468.27 729.00,465.31 729.00,459.15 C729.00,459.00 729.00,458.85 729.00,458.71 C729.13,459.86 729.53,459.61 730.34,458.80 C732.25,456.89 732.58,450.36 730.80,449.77 C729.89,449.46 729.92,448.61 730.94,446.15 C731.67,444.38 731.98,442.65 731.63,442.30 C731.25,441.92 730.93,441.83 730.66,442.10 C730.83,441.34 731.02,440.53 731.22,439.68 C731.48,439.73 732.19,439.21 733.62,438.09 C735.30,436.77 736.57,434.73 736.70,433.17 C737.71,420.93 738.38,417.85 740.33,416.48 C741.46,415.69 742.09,414.76 741.74,414.40 C741.38,414.05 741.76,413.09 742.58,412.28 C743.40,411.46 743.82,410.01 743.52,409.06 C743.22,408.10 743.59,405.79 744.35,403.91 C745.12,402.03 745.56,400.00 745.33,399.39 C745.11,398.77 746.22,397.74 747.79,397.09 C750.42,396.00 750.68,395.43 750.89,390.26 C751.15,383.71 751.46,383.00 754.00,383.00 C756.48,383.00 757.33,381.48 756.10,379.19 C755.35,377.79 755.56,376.96 756.97,375.76 C757.99,374.88 759.17,374.46 759.58,374.83 C759.99,375.20 760.02,374.97 759.64,374.32 C759.27,373.66 759.70,371.29 760.60,369.05 C762.15,365.16 762.13,364.73 760.17,360.17 C757.50,353.97 756.80,349.94 758.12,348.36 C758.70,347.66 758.92,346.68 758.61,346.18 C758.03,345.24 764.60,336.20 770.47,329.84 C772.73,327.40 773.69,325.52 773.35,324.22 C773.00,322.91 773.71,321.59 775.50,320.18 C776.97,319.03 778.25,317.50 778.36,316.79 C778.85,313.43 781.41,309.00 782.87,308.97 C785.98,308.91 788.27,306.27 787.83,303.27 C787.56,301.45 788.05,299.75 789.20,298.54 C790.19,297.50 791.00,297.18 791.00,297.83 C791.00,298.47 791.42,299.00 791.94,299.00 C792.83,299.00 792.96,298.10 792.97,291.75 C792.97,290.24 793.45,289.00 794.04,289.00 C794.63,289.00 794.86,288.59 794.55,288.09 C794.24,287.58 794.44,287.02 795.00,286.83 C795.56,286.65 796.20,285.56 796.42,284.43 C796.64,283.29 797.96,280.67 799.36,278.60 C800.77,276.54 802.19,273.98 802.52,272.92 C802.86,271.87 803.49,271.00 803.93,271.00 C804.37,271.00 804.59,269.79 804.43,268.31 C804.27,266.83 804.78,264.07 805.57,262.19 C806.36,260.30 807.00,257.71 807.00,256.43 C807.00,255.16 807.83,253.53 808.84,252.81 C811.23,251.11 811.95,248.93 810.84,246.77 C810.18,245.48 810.31,245.18 811.35,245.58 C812.39,245.98 812.62,245.46 812.26,243.56 C811.99,242.15 812.22,241.00 812.78,241.00 C813.33,241.00 813.72,239.88 813.64,238.50 C813.53,236.52 812.33,235.63 811.58,236.19 C812.05,234.49 812.50,232.76 812.95,231.00 C813.38,229.32 813.79,227.78 814.18,226.36 C813.40,229.49 812.62,232.48 812.35,233.38 C811.98,234.59 812.17,235.01 812.89,234.57 C813.50,234.19 814.00,233.30 814.00,232.60 C814.00,231.89 814.87,230.52 815.94,229.55 C817.73,227.94 818.92,224.64 819.58,219.50 C819.72,218.40 819.87,217.22 819.92,216.87 C820.12,215.31 826.57,210.00 828.25,210.00 C829.28,210.00 829.84,209.56 829.51,209.01 C829.17,208.47 829.53,208.26 830.30,208.56 C831.13,208.88 832.44,207.95 833.50,206.30 C834.48,204.76 836.11,202.71 837.11,201.74 C838.11,200.78 838.70,199.39 838.42,198.66 C837.77,196.96 835.00,196.92 835.00,198.61 C835.00,199.54 834.23,200.83 832.96,202.21 C834.92,199.74 835.51,196.82 835.54,192.18 C835.55,191.28 835.56,190.48 835.60,189.73 C835.91,189.41 836.11,188.87 836.04,188.53 C835.97,188.18 836.85,187.13 838.00,186.20 C839.15,185.26 840.17,183.46 840.26,182.19 C840.37,180.68 841.52,179.37 843.58,178.40 C845.31,177.58 847.23,175.80 847.84,174.45 C849.01,171.88 850.46,171.31 851.50,173.00 C853.34,175.98 861.24,172.35 860.95,168.65 C860.61,164.34 860.92,164.00 865.30,164.00 C867.66,164.00 870.14,163.46 870.80,162.80 C872.48,161.12 872.29,158.05 870.46,157.35 C869.62,157.02 868.26,155.46 867.44,153.88 C866.41,151.88 865.19,151.00 863.47,151.00 C862.11,151.00 860.93,150.44 860.85,149.75 C860.15,144.03 859.21,142.51 856.28,142.34 C852.30,142.11 850.31,143.52 849.00,147.49 C848.37,149.42 847.20,151.00 846.42,151.00 C845.64,151.00 845.00,151.44 845.00,151.97 C845.00,152.50 844.42,152.71 843.70,152.44 C841.98,151.78 838.04,156.05 838.36,158.24 C838.50,159.18 839.54,160.98 840.68,162.23 C842.72,164.46 842.72,164.58 840.95,168.50 C839.96,170.70 839.11,171.92 839.07,171.21 C838.96,169.31 835.30,173.02 834.85,175.50 C834.62,176.75 833.16,177.93 830.99,178.63 C829.07,179.25 827.50,180.38 827.50,181.13 C827.50,183.16 825.42,185.00 823.13,185.00 C821.60,185.00 821.05,184.23 820.81,181.75 C820.55,179.03 820.04,178.45 817.72,178.18 C816.19,178.00 813.56,178.45 811.87,179.18 C808.94,180.44 808.83,180.71 809.35,185.18 C809.70,188.23 809.49,190.00 808.76,190.25 C808.06,190.48 807.54,193.85 807.40,199.06 C807.09,210.73 806.98,211.23 804.28,213.35 C802.97,214.38 802.12,215.46 802.40,215.73 C802.68,216.01 802.30,216.84 801.57,217.57 C800.84,218.31 800.35,220.28 800.50,221.95 C800.64,223.63 800.43,225.00 800.03,225.00 C797.52,225.00 793.17,232.25 793.85,235.29 C793.95,235.73 793.59,236.90 793.05,237.91 C792.51,238.91 792.35,240.02 792.70,240.37 C794.08,241.75 794.89,240.53 800.71,228.25 C802.82,223.81 804.32,220.65 805.42,218.22 C803.47,222.97 800.44,229.19 795.54,238.91 C794.93,240.13 794.32,241.35 793.72,242.55 C793.61,242.43 793.39,242.27 793.08,242.07 C792.08,241.44 791.11,241.86 789.83,243.49 C788.82,244.77 788.00,246.31 788.00,246.91 C788.00,247.51 787.52,248.00 786.94,248.00 C786.36,248.00 786.14,248.41 786.45,248.92 C786.76,249.43 786.31,250.55 785.44,251.42 C784.57,252.29 784.23,253.01 784.68,253.02 C785.13,253.02 785.01,253.36 784.41,253.77 C782.85,254.82 780.87,261.00 782.09,261.00 C782.70,261.00 782.67,261.75 782.00,263.00 C781.41,264.10 781.24,265.00 781.62,265.00 C782.00,265.00 781.55,265.84 780.61,266.87 C779.68,267.91 779.05,269.20 779.21,269.75 C779.37,270.31 778.38,271.85 777.00,273.19 C775.62,274.53 774.01,276.50 773.42,277.56 C772.82,278.63 770.92,279.93 769.19,280.45 C766.43,281.29 766.10,281.75 766.54,284.24 C766.98,286.74 766.61,287.26 763.53,288.55 C761.59,289.36 760.08,290.36 760.17,290.76 C760.54,292.47 758.69,297.00 757.62,297.00 C756.98,297.00 754.74,298.42 752.64,300.15 C748.61,303.47 744.03,304.66 742.82,302.71 C742.42,302.07 742.76,300.82 743.57,299.93 C744.98,298.36 745.42,292.83 744.63,286.50 C744.43,284.85 744.20,282.95 744.13,282.27 C744.06,281.59 742.92,280.77 741.61,280.44 C739.96,280.02 739.03,278.90 738.61,276.81 C738.09,274.19 737.68,273.86 735.56,274.39 C733.75,274.85 732.73,274.45 731.60,272.84 C730.77,271.65 730.26,270.38 730.48,270.03 C730.70,269.68 729.33,268.56 727.44,267.54 C725.55,266.52 723.97,265.42 723.94,265.09 C723.90,264.77 723.73,263.06 723.56,261.31 C723.19,257.64 719.22,253.65 714.25,251.95 C712.46,251.34 711.00,250.43 711.00,249.92 C711.00,248.13 699.43,248.88 696.88,250.83 C695.57,251.84 693.74,252.93 692.82,253.27 C691.90,253.61 691.00,255.13 690.82,256.66 C690.57,258.83 689.85,259.56 687.50,260.04 C683.08,260.94 680.59,262.53 679.04,265.42 C677.98,267.41 676.89,268.00 674.27,268.00 C672.27,268.00 671.13,267.59 671.50,267.00 C671.84,266.45 671.64,266.00 671.06,266.00 C670.48,266.00 670.00,266.38 670.00,266.84 C670.00,267.30 668.65,267.60 667.00,267.50 C665.35,267.40 664.00,267.73 664.00,268.22 C664.00,268.71 663.60,268.87 663.10,268.56 C662.61,268.26 661.19,268.84 659.94,269.85 C658.08,271.35 657.62,272.84 657.38,278.09 C657.11,284.18 657.25,284.63 660.19,287.15 C662.10,288.79 663.07,290.39 662.71,291.31 C662.39,292.14 662.60,294.35 663.18,296.22 C663.95,298.76 665.19,300.04 668.03,301.27 C670.99,302.56 671.72,303.36 671.32,304.88 C670.98,306.20 671.52,307.21 673.03,308.01 C674.48,308.79 675.01,308.83 674.57,308.11 C674.17,307.47 674.45,307.23 675.24,307.54 C676.05,307.85 676.57,309.53 676.55,311.71 L 676.50 315.36 L 682.86 315.10 C687.19,314.93 689.00,315.19 688.55,315.92 C688.16,316.55 688.68,317.00 689.77,317.00 C690.82,317.00 691.99,317.32 692.38,317.72 C694.16,319.50 702.26,320.73 705.11,319.65 C706.70,319.05 708.00,318.21 708.00,317.78 C708.00,317.35 708.67,317.00 709.50,317.00 C710.33,317.00 710.95,317.34 710.88,317.75 C710.57,319.74 711.10,321.06 712.00,320.50 C712.55,320.16 713.00,320.36 713.00,320.94 C713.00,321.52 713.45,322.00 714.00,322.00 C714.50,322.00 714.80,321.64 714.91,321.08 C714.97,321.73 715.00,322.44 715.00,323.18 C715.00,324.49 714.96,325.49 714.76,326.40 C714.08,325.74 712.15,325.95 711.50,327.00 C711.16,327.55 709.84,328.00 708.56,328.00 C706.19,328.00 703.23,330.56 704.32,331.66 C705.18,332.52 703.16,336.00 701.79,336.00 C701.17,336.00 699.82,336.76 698.79,337.69 C697.02,339.29 696.95,339.29 697.63,337.53 C698.09,336.34 697.96,335.90 697.29,336.32 C696.71,336.68 694.49,336.34 692.37,335.56 C690.24,334.78 689.07,334.11 689.76,334.07 C691.83,333.95 688.98,330.24 685.81,328.92 C684.30,328.30 682.80,326.93 682.47,325.89 C682.14,324.85 681.45,323.94 680.93,323.88 C680.42,323.81 679.44,323.69 678.75,323.62 C678.06,323.56 677.48,323.05 677.46,322.50 C677.43,321.95 676.83,319.79 676.11,317.70 C675.06,314.61 674.55,314.12 673.41,315.08 C672.05,316.20 671.48,315.32 671.88,312.75 C671.95,312.34 671.61,312.00 671.14,312.00 C670.66,312.00 670.50,310.83 670.77,309.41 C671.22,307.08 670.98,306.84 668.38,307.02 C663.87,307.32 663.62,307.22 659.00,303.27 C656.60,301.21 653.93,299.53 653.07,299.52 C652.20,299.51 651.56,298.73 651.64,297.76 C651.72,296.77 651.32,296.30 650.72,296.67 C650.06,297.08 649.90,296.70 650.30,295.66 C650.65,294.75 650.53,294.00 650.04,294.00 C649.54,294.00 648.85,293.10 648.50,292.00 C648.15,290.90 647.26,290.00 646.52,290.00 C644.73,290.00 636.42,282.14 636.79,280.81 C636.98,280.14 635.81,280.00 633.54,280.43 C630.44,281.01 630.00,280.84 630.00,279.08 C630.00,276.70 626.32,273.00 623.93,273.00 C623.00,273.00 621.63,272.24 620.87,271.31 C619.69,269.85 619.71,269.72 621.00,270.38 C621.83,270.81 621.38,270.19 620.00,269.02 C618.62,267.85 616.22,265.79 614.65,264.44 C613.08,263.10 611.47,262.00 611.07,262.00 C610.18,262.00 606.14,257.78 606.06,256.75 C606.03,256.34 605.66,255.97 605.25,255.93 C603.64,255.77 597.39,251.55 595.24,249.18 C594.00,247.80 592.69,246.98 592.33,247.34 C591.46,248.21 588.00,245.07 588.00,243.41 C588.00,242.00 586.59,241.47 580.22,240.48 C576.57,239.91 575.74,239.32 574.53,236.41 C573.52,234.01 572.42,232.97 570.80,232.88 C569.54,232.82 567.98,232.71 567.35,232.63 C566.72,232.56 564.92,231.09 563.35,229.36 C560.87,226.62 554.17,223.85 555.59,226.14 C556.93,228.32 551.41,225.68 548.69,222.84 C547.70,221.80 546.47,221.21 545.97,221.52 C545.48,221.82 541.86,220.71 537.94,219.04 C532.51,216.73 529.92,216.15 527.11,216.60 C524.39,217.03 523.05,216.76 522.08,215.60 C520.53,213.73 517.00,213.45 517.00,215.19 C517.00,215.85 516.40,215.56 515.67,214.56 C514.58,213.07 513.96,212.95 512.21,213.89 C511.04,214.51 509.52,214.91 508.83,214.76 C508.14,214.62 507.51,215.45 507.43,216.61 C507.35,217.78 506.97,219.24 506.58,219.86 C506.20,220.49 506.40,221.00 507.03,221.00 C507.84,221.00 507.99,222.46 507.52,225.82 C507.01,229.57 507.21,230.93 508.43,231.94 C509.57,232.89 510.00,232.92 510.00,232.06 C510.00,231.41 510.44,231.15 510.97,231.48 C511.45,231.78 511.73,230.33 511.75,227.59 C512.38,231.14 513.47,235.75 514.84,240.67 C514.59,239.81 514.33,238.94 514.08,238.06 C513.17,234.90 511.25,234.26 511.58,237.22 C511.72,238.47 511.92,239.73 512.03,240.00 C512.13,240.27 512.14,241.48 512.05,242.68 C511.95,243.88 512.58,246.22 513.44,247.88 C514.30,249.54 515.01,252.16 515.02,253.70 C515.03,256.15 516.94,260.93 516.98,258.62 C517.03,255.85 520.67,263.16 520.86,266.39 C521.11,270.70 522.19,273.19 525.08,276.08 C526.13,277.13 527.06,278.67 527.12,279.50 C527.19,280.33 527.36,281.45 527.50,282.00 C527.64,282.55 527.81,283.44 527.88,283.97 C527.94,284.51 529.35,285.65 531.00,286.50 C533.73,287.91 534.00,288.51 534.00,293.05 C534.00,297.82 534.14,298.08 537.04,298.66 C539.91,299.23 543.71,303.95 542.38,305.29 C542.09,305.58 543.21,306.84 544.88,308.07 C546.55,309.31 547.71,310.66 547.45,311.08 C547.19,311.50 548.33,312.81 549.99,313.99 C552.16,315.54 553.00,316.95 553.00,319.07 C553.00,321.90 553.50,322.28 557.25,322.27 C558.21,322.26 559.95,323.80 561.12,325.69 C562.40,327.77 563.78,328.91 564.62,328.59 C565.38,328.30 566.00,328.39 566.00,328.78 C566.00,329.18 568.02,330.85 570.49,332.50 C572.95,334.15 575.23,336.29 575.55,337.25 C575.87,338.21 576.91,339.00 577.87,339.00 C578.82,339.00 580.07,339.47 580.64,340.04 C581.21,340.61 582.94,341.30 584.49,341.58 C586.04,341.87 588.14,342.54 589.15,343.08 C590.17,343.63 591.02,343.72 591.04,343.29 C591.06,342.85 591.75,343.74 592.57,345.25 C593.39,346.76 594.39,348.05 594.78,348.11 C595.18,348.17 597.62,348.31 600.22,348.42 C603.71,348.56 605.44,349.20 606.89,350.87 C607.97,352.12 610.12,353.51 611.67,353.98 C615.47,355.12 616.78,355.16 617.40,354.16 C617.69,353.70 620.08,353.46 622.71,353.62 C626.57,353.86 625.47,353.37 617.00,351.09 C605.65,348.02 597.91,344.98 588.50,339.89 C585.88,338.47 583.15,336.79 580.36,334.91 C592.26,342.79 604.84,348.02 620.50,351.93 C629.94,354.29 634.59,355.26 640.80,355.52 C637.31,355.55 635.00,355.62 635.00,355.71 C635.00,355.84 636.91,356.86 639.25,357.97 C642.64,359.59 644.72,359.89 649.50,359.44 C655.53,358.88 661.00,357.30 661.00,356.13 C661.00,355.82 656.37,355.56 650.32,355.50 C651.18,355.47 652.07,355.45 653.02,355.42 C662.02,355.12 666.06,354.51 672.94,352.34 C671.22,353.28 672.37,354.00 676.42,354.00 C681.40,354.00 684.23,353.19 683.49,351.98 C682.29,350.04 686.18,348.14 691.32,348.14 L 696.64 348.14 L 696.58 351.57 C696.55,353.46 696.17,355.00 695.74,355.00 C695.30,355.00 694.53,356.12 694.01,357.48 C693.01,360.09 690.00,360.04 690.00,357.41 C690.00,356.17 685.40,354.24 684.55,355.13 C684.36,355.33 684.04,356.62 683.85,358.00 C683.42,361.05 681.39,363.36 679.70,362.71 C678.49,362.25 669.12,363.43 664.00,364.70 C662.62,365.04 659.59,365.37 657.27,365.44 C654.45,365.53 652.59,366.18 651.71,367.38 C650.59,368.91 648.44,369.25 637.45,369.63 C625.55,370.04 618.98,370.35 611.75,370.82 C610.08,370.93 609.00,371.58 609.00,372.46 C609.00,374.56 605.78,376.00 601.10,376.00 C598.09,376.00 596.80,376.51 596.00,378.00 C595.41,379.10 594.15,380.00 593.19,380.00 C592.23,380.00 590.56,380.61 589.47,381.35 C588.39,382.10 586.48,382.62 585.23,382.52 C582.38,382.28 580.60,384.36 581.31,387.08 C581.74,388.74 581.15,389.46 578.43,390.59 C576.54,391.38 575.00,392.53 575.00,393.15 C575.00,393.77 573.79,395.39 572.30,396.77 C570.24,398.68 569.66,400.08 569.84,402.72 C569.99,404.89 569.69,405.93 569.04,405.52 C568.47,405.17 568.00,405.36 568.00,405.94 C568.00,408.41 570.21,406.96 572.18,403.56 C571.41,405.65 571.00,407.77 571.00,409.89 C571.00,412.21 571.84,414.46 573.35,416.50 C571.89,414.75 571.00,413.00 571.00,411.57 C571.00,407.89 568.29,407.55 567.76,411.16 C567.48,413.11 567.80,414.37 568.66,414.70 C569.40,414.98 570.00,416.67 570.00,418.49 C570.00,421.89 571.47,422.96 578.18,424.42 C579.65,424.74 581.53,425.68 582.36,426.50 C584.01,428.16 588.48,428.59 587.50,427.00 C587.16,426.45 587.25,426.00 587.70,426.00 C588.15,426.00 589.08,426.89 589.76,427.98 C590.81,429.67 591.71,429.87 595.75,429.36 C598.36,429.03 601.00,428.14 601.61,427.38 C602.85,425.84 608.65,425.49 609.17,426.92 C609.35,427.42 611.30,427.16 613.50,426.35 C619.32,424.19 623.92,423.14 628.86,422.85 C632.13,422.66 633.59,422.02 634.72,420.30 C635.55,419.03 637.10,418.00 638.16,418.00 C639.23,418.00 641.44,417.31 643.08,416.46 C644.72,415.61 646.44,415.16 646.92,415.45 C647.39,415.74 648.24,415.42 648.80,414.74 C649.80,413.53 650.00,412.94 650.00,411.12 C650.00,410.64 651.05,410.25 652.34,410.25 C653.80,410.25 656.67,408.32 659.99,405.10 C663.71,401.50 665.84,400.13 667.10,400.53 C668.45,400.96 669.39,400.15 670.85,397.30 C671.91,395.21 672.72,393.18 672.64,392.79 C672.46,391.88 676.29,389.06 677.07,389.54 C677.39,389.74 677.57,388.92 677.47,387.70 C677.19,384.57 678.78,383.00 682.24,383.00 C685.04,383.00 685.20,382.80 684.74,379.75 C684.33,377.05 684.81,375.95 687.56,373.26 C689.93,370.95 690.97,368.95 691.19,366.26 C691.38,363.91 691.97,362.59 692.75,362.75 C693.44,362.89 694.00,362.34 694.00,361.53 C694.00,360.64 694.59,360.29 695.50,360.64 C696.46,361.01 697.05,362.70 697.15,365.36 C697.26,368.52 697.38,368.79 697.66,366.50 C698.09,362.84 698.47,359.76 698.85,357.12 C698.30,361.79 697.99,367.26 697.98,373.19 C697.97,377.09 697.88,380.43 697.63,383.38 C697.39,383.00 696.83,383.03 695.81,383.17 C693.93,383.44 693.56,384.02 693.80,386.34 C693.98,388.01 693.70,388.93 693.12,388.58 C692.15,387.98 691.33,389.71 690.48,394.10 C690.24,395.35 688.68,397.61 687.02,399.13 C685.36,400.65 684.00,402.58 684.00,403.42 C684.00,405.80 671.49,418.23 668.82,418.51 C667.55,418.64 665.91,418.80 665.19,418.87 C664.42,418.95 664.01,419.94 664.19,421.25 C664.46,423.20 663.99,423.54 660.70,423.81 C657.76,424.06 656.70,424.67 655.99,426.54 C655.48,427.86 654.01,429.21 652.71,429.54 C651.42,429.86 649.58,431.45 648.62,433.06 C647.67,434.68 646.27,436.00 645.52,436.00 C643.88,436.00 637.77,439.12 636.82,440.45 C636.44,440.98 636.33,441.73 636.58,442.13 C636.83,442.53 636.61,443.12 636.10,443.44 C635.59,443.75 635.49,445.20 635.88,446.66 C636.41,448.64 637.59,449.60 640.55,450.48 C646.31,452.19 648.98,453.84 649.12,455.79 C649.22,457.38 649.26,457.38 649.69,455.76 C649.82,455.27 649.91,454.80 649.98,454.37 L 650.00 454.58 C650.43,458.79 650.83,459.55 652.83,459.83 C654.13,460.01 656.88,459.02 659.06,457.58 C659.56,457.25 660.02,456.95 660.45,456.68 C660.06,456.93 659.65,457.20 659.21,457.50 C655.20,460.23 652.07,460.67 650.19,458.79 C649.25,457.85 649.04,458.20 649.22,460.36 C649.57,464.64 651.47,465.62 655.58,463.66 C661.31,460.93 661.64,461.22 661.23,468.75 C661.04,472.46 660.42,476.69 659.86,478.14 C659.13,480.05 659.19,481.34 660.10,482.80 C661.22,484.59 660.90,485.26 657.10,488.90 C654.75,491.16 652.09,493.06 651.17,493.13 C650.25,493.20 646.12,493.38 642.00,493.53 C631.35,493.92 629.23,494.42 626.19,497.25 C624.71,498.63 621.47,501.01 619.00,502.53 C616.53,504.05 614.21,505.74 613.86,506.27 C613.51,506.81 612.03,507.38 610.56,507.54 C607.07,507.93 602.89,510.72 602.27,513.09 C601.99,514.13 601.44,514.77 601.03,514.52 C600.63,514.27 599.44,514.72 598.40,515.53 C596.55,516.96 596.55,517.04 598.35,518.43 C600.45,520.06 602.01,519.72 603.27,517.34 C604.90,518.26 613.72,518.09 619.00,516.90 C620.57,516.55 622.04,516.22 623.42,515.92 C621.26,516.93 621.52,518.88 624.47,518.55 C625.83,518.40 626.71,518.67 626.41,519.14 C626.12,519.61 626.54,520.00 627.33,520.00 C628.73,520.00 629.98,521.90 630.59,524.93 C630.94,526.66 628.19,528.92 625.71,528.97 C624.72,528.99 623.99,529.56 624.07,530.25 C624.49,533.45 623.84,535.88 622.00,538.00 C620.90,539.27 620.00,540.71 620.00,541.21 C620.00,541.71 619.60,541.87 619.11,541.57 C618.22,541.02 615.00,549.52 615.00,552.44 C615.00,553.30 614.43,554.00 613.74,554.00 C612.28,554.00 609.58,557.91 610.45,558.78 C611.79,560.12 604.77,561.88 600.21,561.34 C595.34,560.76 593.58,561.63 592.83,565.00 C592.65,565.83 592.19,566.74 591.80,567.03 C591.13,567.53 590.26,571.38 589.46,577.33 C589.23,578.98 587.55,581.55 585.45,583.48 C583.45,585.31 581.90,587.08 581.99,587.42 C582.49,589.29 580.50,594.43 578.41,596.69 C577.08,598.12 576.01,600.01 576.02,600.90 C576.03,602.30 576.16,602.32 577.09,601.00 C577.87,599.90 578.00,600.84 577.57,604.55 C577.09,608.71 577.33,609.98 578.95,611.72 ZM 744.40 314.08 C742.05,316.03 740.33,316.02 738.55,314.05 C737.20,312.57 737.16,311.94 738.27,309.90 C739.75,307.17 741.64,306.46 743.45,307.96 C744.13,308.52 744.98,308.69 745.34,308.32 C745.70,307.96 746.00,308.81 746.00,310.21 C746.00,311.61 745.28,313.35 744.40,314.08 ZM 800.24 269.13 C799.80,270.17 799.38,271.16 798.97,272.08 C794.23,282.88 789.47,291.77 779.81,307.84 C776.06,314.08 773.29,319.66 773.65,320.25 C774.02,320.85 773.84,321.02 773.23,320.64 C772.58,320.24 768.19,325.86 762.41,334.46 L 756.50 343.25 L 766.20 328.73 C782.18,304.81 792.58,286.92 800.24,269.13 ZM 793.52 242.95 C790.79,248.49 788.36,253.68 787.00,256.84 C788.64,252.35 790.64,247.67 791.46,246.42 C792.59,244.70 792.65,244.03 791.72,243.65 C791.05,243.38 791.40,243.12 792.50,243.06 C792.97,243.04 793.31,243.01 793.52,242.95 ZM 689.95 504.39 C689.76,504.67 689.58,504.97 689.39,505.28 C687.96,507.60 685.82,510.97 684.64,512.78 C684.09,513.62 681.01,516.75 676.40,521.21 C681.75,515.92 684.71,512.58 686.04,510.42 C687.58,507.91 688.83,505.95 689.95,504.39 ZM 647.97 409.19 C655.07,404.32 662.45,397.98 669.17,391.14 C663.75,396.76 658.05,401.91 652.79,405.80 C651.18,406.98 649.57,408.11 647.97,409.19 ZM 580.42 392.13 C589.08,384.06 603.09,377.74 620.05,374.56 C603.22,377.71 589.12,384.21 580.42,392.13 ZM 621.54 421.87 C627.41,419.98 634.41,417.04 639.91,414.12 C633.84,417.47 627.75,420.04 621.54,421.87 ZM 785.63 260.52 C784.12,265.21 782.21,269.45 779.29,274.22 C781.73,270.06 783.57,265.91 785.63,260.52 ZM 610.55 583.50 C616.53,577.54 625.78,568.64 635.32,559.62 C625.16,569.26 615.20,578.91 607.01,587.04 C608.18,585.87 609.36,584.68 610.55,583.50 ZM 615.13 509.16 C618.92,507.13 622.99,504.63 625.58,502.78 C622.86,504.86 618.93,507.33 616.20,508.65 C615.84,508.82 615.48,508.99 615.13,509.16 ZM 537.02 289.95 C532.27,282.68 528.32,275.57 524.85,267.97 C528.37,275.48 532.50,282.92 537.02,289.95 ZM 676.95 350.99 C681.36,349.41 685.83,347.52 689.21,345.86 C685.21,347.91 680.07,350.14 676.95,350.99 ZM 837.07 183.85 C838.28,181.38 840.44,178.35 844.30,173.21 C841.24,177.35 838.71,181.08 837.07,183.85 ZM 810.92 238.58 C810.59,240.44 809.27,244.73 807.51,249.85 C808.71,246.18 809.84,242.45 810.92,238.58 ZM 664.74 427.47 C658.24,432.46 651.63,436.67 645.19,439.92 C651.13,436.93 658.10,432.45 664.74,427.47 ZM 649.39 450.88 C648.58,449.70 647.01,448.83 644.50,448.00 C643.89,447.79 643.33,447.59 642.83,447.40 C643.33,447.59 643.89,447.79 644.50,447.99 C647.68,449.05 648.84,449.45 649.39,450.88 ZM 747.68 314.67 C745.74,317.53 743.87,319.76 742.31,321.12 C743.91,319.49 745.98,317.02 747.68,314.67 ZM 741.69 405.82 C745.02,396.95 748.74,388.27 752.58,380.48 C749.01,387.72 745.10,396.88 741.69,405.82 ZM 583.00 610.00 L 582.95 609.97 C581.93,609.43 581.21,608.60 580.79,607.50 C581.13,608.05 581.59,608.59 582.19,609.19 ZM 703.28 341.93 C704.73,339.56 706.66,337.27 709.40,334.20 C707.15,336.72 704.78,339.73 703.28,341.93 ZM 590.03 604.57 C589.25,605.45 588.63,606.18 588.19,606.75 C587.30,607.89 586.62,608.72 586.04,609.29 L 587.94 606.94 C588.33,606.45 589.05,605.64 590.03,604.57 ZM 553.92 312.15 C551.36,309.40 549.02,306.64 546.97,303.96 C546.82,303.76 546.67,303.56 546.52,303.36 C548.93,306.44 551.40,309.39 553.92,312.15 ZM 629.19 499.87 C631.55,498.04 632.61,497.99 636.00,498.49 C638.47,498.86 641.77,499.14 643.33,499.12 C641.77,499.14 638.47,498.87 636.00,498.51 C632.72,498.04 631.63,498.07 629.19,499.87 ZM 828.42 206.04 C827.51,206.66 826.53,207.26 825.53,207.81 C823.97,208.65 822.62,209.58 821.45,210.67 C822.69,209.50 824.13,208.53 825.90,207.54 C826.83,207.02 827.66,206.52 828.42,206.04 ZM 583.20 423.46 C584.80,424.07 586.51,424.55 588.31,424.90 C586.45,424.63 584.95,424.18 583.20,423.46 ZM 696.08 392.11 C695.33,394.57 694.31,396.84 692.91,399.12 C694.28,396.80 695.30,394.52 696.08,392.11 ZM 729.24 451.67 C729.16,452.84 729.10,453.86 729.06,454.73 C729.11,453.09 729.20,451.59 729.34,450.12 C729.31,450.61 729.27,451.13 729.24,451.67 ZM 713.97 317.06 C713.81,316.78 713.63,316.50 713.44,316.22 C713.11,315.74 712.75,315.35 712.36,315.03 C713.02,315.50 713.55,316.18 713.97,317.06 ZM 754.98 304.92 C753.00,307.35 751.14,309.74 749.80,311.58 C750.93,309.99 752.84,307.53 754.98,304.92 ZM 808.91 205.53 C808.96,205.11 809.01,204.67 809.06,204.20 C809.48,200.63 810.56,195.76 811.78,191.48 C810.56,195.76 809.48,200.63 809.07,204.20 C809.02,204.65 808.96,205.09 808.91,205.53 ZM 709.40 334.20 C710.74,332.70 711.98,331.23 712.94,330.01 C712.12,331.11 710.98,332.43 709.40,334.20 ZM 734.44 307.96 C735.04,306.56 736.38,305.19 739.11,302.91 C736.44,305.14 735.07,306.57 734.44,307.96 ZM 640.12 513.17 C640.72,513.24 641.00,513.41 641.00,513.69 C641.00,513.71 641.00,513.73 640.99,513.75 C640.95,513.48 640.64,513.29 640.12,513.17 ZM 727.00 472.73 C726.52,473.33 726.08,474.15 725.74,475.02 C726.05,474.15 726.47,473.40 727.00,472.73 ZM 738.91 322.44 C738.68,322.28 738.43,322.03 738.17,321.71 C738.40,321.98 738.66,322.23 738.91,322.44 Z" fill="rgb(254,254,254)"/>
<path d="M 578.95 611.72 C577.33,609.98 577.09,608.71 577.57,604.55 C578.00,600.84 577.87,599.90 577.09,601.00 C576.16,602.32 576.03,602.30 576.02,600.90 C576.01,600.01 577.08,598.12 578.41,596.69 C580.50,594.43 582.49,589.29 581.99,587.42 C581.90,587.08 583.45,585.31 585.45,583.48 C587.55,581.55 589.23,578.98 589.46,577.33 C590.26,571.38 591.13,567.53 591.80,567.03 C592.19,566.74 592.65,565.83 592.83,565.00 C593.58,561.63 595.34,560.76 600.21,561.34 C604.77,561.88 611.79,560.12 610.45,558.78 C609.58,557.91 612.28,554.00 613.74,554.00 C614.43,554.00 615.00,553.30 615.00,552.44 C615.00,549.52 618.22,541.02 619.11,541.57 C619.60,541.87 620.00,541.71 620.00,541.21 C620.00,540.71 620.90,539.27 622.00,538.00 C623.84,535.88 624.49,533.45 624.07,530.25 C623.99,529.56 624.72,528.99 625.71,528.97 C628.19,528.92 630.94,526.66 630.59,524.93 C629.98,521.90 628.73,520.00 627.33,520.00 C626.54,520.00 626.12,519.61 626.41,519.14 C626.71,518.67 625.83,518.40 624.47,518.55 C621.01,518.93 621.26,516.18 624.75,515.50 C626.26,515.21 629.42,514.53 631.76,513.98 C636.96,512.79 641.00,512.71 641.00,513.82 C641.00,514.27 639.22,517.03 637.04,519.95 C634.86,522.87 629.35,532.21 624.79,540.71 C620.23,549.21 615.05,557.87 613.28,559.96 C610.33,563.43 609.54,563.79 604.02,564.19 C596.84,564.71 595.58,565.96 593.91,574.21 C593.13,578.07 591.71,581.16 589.52,583.71 C585.57,588.35 583.28,592.70 581.33,599.26 C579.64,604.97 580.17,608.48 582.95,609.97 C584.59,610.85 585.38,610.36 588.19,606.75 C593.89,599.41 628.52,565.49 656.05,540.28 C670.60,526.95 683.46,514.58 684.64,512.78 C685.82,510.97 687.96,507.60 689.39,505.28 C692.70,499.91 694.98,498.45 702.95,496.59 L 709.39 495.09 L 706.74 497.54 C705.28,498.89 702.92,500.00 701.49,500.00 C699.49,500.00 698.65,500.71 697.82,503.09 C696.95,505.59 696.29,506.10 694.42,505.74 C693.14,505.50 692.13,505.57 692.17,505.90 C692.36,507.57 691.83,508.80 690.15,510.61 C687.06,513.93 681.30,522.47 680.54,524.87 C679.71,527.50 675.88,529.32 674.77,527.62 C674.24,526.82 674.03,526.85 674.02,527.72 C674.01,528.39 673.36,528.69 672.57,528.39 C671.55,528.00 671.29,528.40 671.66,529.82 C672.02,531.20 671.58,532.00 670.21,532.43 C669.12,532.78 666.99,534.86 665.47,537.05 C663.95,539.24 661.69,541.29 660.46,541.60 C659.23,541.91 657.27,543.25 656.12,544.58 C654.96,545.91 653.57,547.00 653.03,547.00 C652.48,547.00 651.74,548.24 651.38,549.75 C650.46,553.59 649.13,555.00 646.43,555.00 C644.93,555.00 643.50,556.03 642.37,557.95 C641.42,559.57 640.27,560.67 639.83,560.39 C639.39,560.12 636.74,562.03 633.95,564.65 C630.47,567.90 629.02,569.97 629.35,571.22 C630.01,573.74 627.64,575.79 624.48,575.45 C622.34,575.21 621.65,575.71 620.82,578.08 C620.23,579.79 619.09,581.00 618.08,581.00 C615.93,581.00 611.71,585.34 612.74,586.48 C613.16,586.94 613.04,587.06 612.47,586.74 C611.90,586.41 610.38,587.69 609.09,589.58 C607.80,591.46 606.16,593.00 605.44,593.00 C603.63,593.00 599.89,597.99 600.67,599.37 C601.03,599.99 600.97,600.18 600.53,599.79 C600.10,599.40 598.42,599.76 596.80,600.60 C594.39,601.85 594.08,602.39 595.07,603.58 C596.03,604.74 595.91,605.44 594.48,607.02 C593.50,608.11 591.86,609.00 590.85,609.00 C589.19,609.00 588.54,610.08 588.88,612.25 C589.02,613.10 588.73,613.18 584.21,613.56 C581.90,613.75 580.33,613.20 578.95,611.72 ZM 598.35 518.43 C596.55,517.04 596.55,516.96 598.40,515.53 C599.44,514.72 600.63,514.27 601.03,514.52 C601.44,514.77 601.99,514.13 602.27,513.09 C602.89,510.72 607.07,507.93 610.56,507.54 C612.03,507.38 613.51,506.81 613.86,506.27 C614.21,505.74 616.53,504.05 619.00,502.53 C621.47,501.01 624.71,498.63 626.19,497.25 C629.23,494.42 631.35,493.92 642.00,493.53 C646.12,493.38 650.25,493.20 651.17,493.13 C652.09,493.06 654.75,491.16 657.10,488.90 C660.90,485.26 661.22,484.59 660.10,482.80 C659.19,481.34 659.13,480.05 659.86,478.14 C660.42,476.69 661.04,472.46 661.23,468.75 C661.64,461.22 661.31,460.93 655.58,463.66 C651.47,465.62 649.57,464.64 649.22,460.36 C649.04,458.20 649.25,457.85 650.19,458.79 C652.07,460.67 655.20,460.23 659.21,457.50 C665.41,453.29 666.05,453.83 665.46,462.75 C664.42,478.24 662.76,488.03 660.73,490.62 C658.36,493.63 647.27,499.05 643.33,499.12 C641.77,499.14 638.47,498.86 636.00,498.49 C631.83,497.88 631.19,498.09 627.32,501.43 C625.02,503.42 618.94,507.21 613.82,509.86 C608.43,512.65 604.09,515.58 603.52,516.82 C602.22,519.66 600.59,520.17 598.35,518.43 ZM 714.45 495.91 C714.08,495.31 712.92,495.05 711.89,495.32 C708.39,496.23 710.86,494.37 714.92,493.03 C717.12,492.30 719.92,490.64 721.14,489.35 C723.96,486.35 725.00,486.38 725.00,489.46 C725.00,491.94 721.90,494.56 720.56,493.22 C720.17,492.83 719.42,493.28 718.90,494.22 C718.32,495.26 717.31,495.67 716.31,495.29 C715.21,494.87 714.91,495.05 715.39,495.83 C715.79,496.47 715.89,497.00 715.62,497.00 C715.34,497.00 714.82,496.51 714.45,495.91 ZM 725.00 478.33 C725.00,476.65 725.90,474.13 727.00,472.73 C728.17,471.24 729.00,468.67 729.00,466.52 C729.00,463.21 729.15,463.01 730.55,464.40 C731.57,465.43 732.02,467.47 731.86,470.46 C731.67,474.08 730.98,475.60 728.31,478.18 L 725.00 481.39 L 725.00 478.33 ZM 729.24 451.67 C729.77,443.14 730.32,440.99 731.63,442.30 C731.98,442.65 731.67,444.38 730.94,446.15 C729.92,448.61 729.89,449.46 730.80,449.77 C732.58,450.36 732.25,456.89 730.34,458.80 C728.80,460.34 728.73,459.84 729.24,451.67 ZM 649.12 455.79 C648.98,453.84 646.31,452.19 640.55,450.48 C637.59,449.60 636.41,448.64 635.88,446.66 C635.49,445.20 635.59,443.75 636.10,443.44 C636.61,443.12 636.83,442.53 636.58,442.13 C636.33,441.73 636.44,440.98 636.82,440.45 C637.77,439.12 643.88,436.00 645.52,436.00 C646.27,436.00 647.67,434.68 648.62,433.06 C649.58,431.45 651.42,429.86 652.71,429.54 C654.01,429.21 655.48,427.86 655.99,426.54 C656.70,424.67 657.76,424.06 660.70,423.81 C663.99,423.54 664.46,423.20 664.19,421.25 C664.01,419.94 664.42,418.95 665.19,418.87 C665.91,418.80 667.55,418.64 668.82,418.51 C671.49,418.23 684.00,405.80 684.00,403.42 C684.00,402.58 685.36,400.65 687.02,399.13 C688.68,397.61 690.24,395.35 690.48,394.10 C691.33,389.71 692.15,387.98 693.12,388.58 C693.70,388.93 693.98,388.01 693.80,386.34 C693.56,384.02 693.93,383.44 695.81,383.17 C697.98,382.87 698.08,383.08 697.43,386.67 C695.56,396.97 691.17,403.71 678.32,416.04 C668.91,425.06 655.50,434.73 645.19,439.92 C637.53,443.77 637.37,445.62 644.50,448.00 C649.58,449.69 650.80,451.51 649.69,455.76 C649.26,457.38 649.22,457.38 649.12,455.79 ZM 731.34 438.42 C731.66,437.36 732.89,432.90 734.07,428.50 C737.56,415.55 745.69,394.46 752.58,380.48 C756.11,373.32 759.00,366.38 759.00,365.06 C759.00,363.74 757.58,359.57 755.84,355.80 L 752.68 348.94 L 762.41 334.46 C768.19,325.86 772.58,320.24 773.23,320.64 C773.84,321.02 774.02,320.85 773.65,320.25 C773.29,319.66 776.06,314.08 779.81,307.84 C789.47,291.77 794.23,282.88 798.97,272.08 C803.80,261.08 811.00,240.62 811.00,237.89 C811.00,235.05 813.48,235.62 813.64,238.50 C813.72,239.88 813.33,241.00 812.78,241.00 C812.22,241.00 811.99,242.15 812.26,243.56 C812.62,245.46 812.39,245.98 811.35,245.58 C810.31,245.18 810.18,245.48 810.84,246.77 C811.95,248.93 811.23,251.11 808.84,252.81 C807.83,253.53 807.00,255.16 807.00,256.43 C807.00,257.71 806.36,260.30 805.57,262.19 C804.78,264.07 804.27,266.83 804.43,268.31 C804.59,269.79 804.37,271.00 803.93,271.00 C803.49,271.00 802.86,271.87 802.52,272.92 C802.19,273.98 800.77,276.54 799.36,278.60 C797.96,280.67 796.64,283.29 796.42,284.43 C796.20,285.56 795.56,286.65 795.00,286.83 C794.44,287.02 794.24,287.58 794.55,288.09 C794.86,288.59 794.63,289.00 794.04,289.00 C793.45,289.00 792.97,290.24 792.97,291.75 C792.96,298.10 792.83,299.00 791.94,299.00 C791.42,299.00 791.00,298.47 791.00,297.83 C791.00,297.18 790.19,297.50 789.20,298.54 C788.05,299.75 787.56,301.45 787.83,303.27 C788.27,306.27 785.98,308.91 782.87,308.97 C781.41,309.00 778.85,313.43 778.36,316.79 C778.25,317.50 776.97,319.03 775.50,320.18 C773.71,321.59 773.00,322.91 773.35,324.22 C773.69,325.52 772.73,327.40 770.47,329.84 C764.60,336.20 758.03,345.24 758.61,346.18 C758.92,346.68 758.70,347.66 758.12,348.36 C756.80,349.94 757.50,353.97 760.17,360.17 C762.13,364.73 762.15,365.16 760.60,369.05 C759.70,371.29 759.27,373.66 759.64,374.32 C760.02,374.97 759.99,375.20 759.58,374.83 C759.17,374.46 757.99,374.88 756.97,375.76 C755.56,376.96 755.35,377.79 756.10,379.19 C757.33,381.48 756.48,383.00 754.00,383.00 C751.46,383.00 751.15,383.71 750.89,390.26 C750.68,395.43 750.42,396.00 747.79,397.09 C746.22,397.74 745.11,398.77 745.33,399.39 C745.56,400.00 745.12,402.03 744.35,403.91 C743.59,405.79 743.22,408.10 743.52,409.06 C743.82,410.01 743.40,411.46 742.58,412.28 C741.76,413.09 741.38,414.05 741.74,414.40 C742.09,414.76 741.46,415.69 740.33,416.48 C738.38,417.85 737.71,420.93 736.70,433.17 C736.57,434.73 735.30,436.77 733.62,438.09 C731.00,440.15 730.81,440.17 731.34,438.42 ZM 589.76 427.98 C589.08,426.89 588.15,426.00 587.70,426.00 C587.25,426.00 587.16,426.45 587.50,427.00 C588.48,428.59 584.01,428.16 582.36,426.50 C581.53,425.68 579.65,424.74 578.18,424.42 C571.47,422.96 570.00,421.89 570.00,418.49 C570.00,416.67 569.40,414.98 568.66,414.70 C567.80,414.37 567.48,413.11 567.76,411.16 C568.29,407.55 571.00,407.89 571.00,411.57 C571.00,415.06 576.26,420.43 582.24,423.05 C586.70,425.01 589.10,425.34 598.00,425.27 C617.59,425.11 634.97,418.93 652.79,405.80 C666.73,395.51 683.71,376.30 690.39,363.25 C691.85,360.40 691.87,360.00 690.53,360.00 C689.69,360.00 689.00,360.40 689.00,360.89 C689.00,361.38 687.19,362.51 684.98,363.39 C676.70,366.70 667.75,368.38 649.87,369.95 C643.47,370.52 636.04,371.43 633.37,371.98 C630.69,372.52 624.70,373.68 620.05,374.56 C596.71,378.94 578.97,389.26 573.04,401.91 C570.92,406.44 568.00,408.78 568.00,405.94 C568.00,405.36 568.47,405.17 569.04,405.52 C569.69,405.93 569.99,404.89 569.84,402.72 C569.66,400.08 570.24,398.68 572.30,396.77 C573.79,395.39 575.00,393.77 575.00,393.15 C575.00,392.53 576.54,391.38 578.43,390.59 C581.15,389.46 581.74,388.74 581.31,387.08 C580.60,384.36 582.38,382.28 585.23,382.52 C586.48,382.62 588.39,382.10 589.47,381.35 C590.56,380.61 592.23,380.00 593.19,380.00 C594.15,380.00 595.41,379.10 596.00,378.00 C596.80,376.51 598.09,376.00 601.10,376.00 C605.78,376.00 609.00,374.56 609.00,372.46 C609.00,371.58 610.08,370.93 611.75,370.82 C618.98,370.35 625.55,370.04 637.45,369.63 C648.44,369.25 650.59,368.91 651.71,367.38 C652.59,366.18 654.45,365.53 657.27,365.44 C659.59,365.37 662.62,365.04 664.00,364.70 C669.12,363.43 678.49,362.25 679.70,362.71 C681.39,363.36 683.42,361.05 683.85,358.00 C684.04,356.62 684.36,355.33 684.55,355.13 C685.40,354.24 690.00,356.17 690.00,357.41 C690.00,360.04 693.01,360.09 694.01,357.48 C694.53,356.12 695.30,355.00 695.74,355.00 C696.17,355.00 696.55,353.46 696.58,351.57 L 696.64 348.14 L 691.32 348.14 C686.18,348.14 682.29,350.04 683.49,351.98 C684.23,353.19 681.40,354.00 676.42,354.00 C670.68,354.00 670.77,352.55 676.61,351.08 C682.08,349.70 695.00,343.36 695.00,342.06 C695.00,341.55 690.20,336.72 684.34,331.32 C678.48,325.92 668.24,316.37 661.59,310.09 C611.40,262.73 573.74,235.64 540.50,223.01 C537.20,221.76 533.42,220.23 532.10,219.62 C530.79,219.00 525.61,218.50 520.60,218.50 L 511.50 218.50 L 511.72 225.29 C511.86,229.49 511.57,231.85 510.97,231.48 C510.44,231.15 510.00,231.41 510.00,232.06 C510.00,232.92 509.57,232.89 508.43,231.94 C507.21,230.93 507.01,229.57 507.52,225.82 C507.99,222.46 507.84,221.00 507.03,221.00 C506.40,221.00 506.20,220.49 506.58,219.86 C506.97,219.24 507.35,217.78 507.43,216.61 C507.51,215.45 508.14,214.62 508.83,214.76 C509.52,214.91 511.04,214.51 512.21,213.89 C513.96,212.95 514.58,213.07 515.67,214.56 C516.40,215.56 517.00,215.85 517.00,215.19 C517.00,213.45 520.53,213.73 522.08,215.60 C523.05,216.76 524.39,217.03 527.11,216.60 C529.92,216.15 532.51,216.73 537.94,219.04 C541.86,220.71 545.48,221.82 545.97,221.52 C546.47,221.21 547.70,221.80 548.69,222.84 C551.41,225.68 556.93,228.32 555.59,226.14 C554.17,223.85 560.87,226.62 563.35,229.36 C564.92,231.09 566.72,232.56 567.35,232.63 C567.98,232.71 569.54,232.82 570.80,232.88 C572.42,232.97 573.52,234.01 574.53,236.41 C575.74,239.32 576.57,239.91 580.22,240.48 C586.59,241.47 588.00,242.00 588.00,243.41 C588.00,245.07 591.46,248.21 592.33,247.34 C592.69,246.98 594.00,247.80 595.24,249.18 C597.39,251.55 603.64,255.77 605.25,255.93 C605.66,255.97 606.03,256.34 606.06,256.75 C606.14,257.78 610.18,262.00 611.07,262.00 C611.47,262.00 613.08,263.10 614.65,264.44 C616.22,265.79 618.62,267.85 620.00,269.02 C621.38,270.19 621.83,270.81 621.00,270.38 C619.71,269.72 619.69,269.85 620.87,271.31 C621.63,272.24 623.00,273.00 623.93,273.00 C626.32,273.00 630.00,276.70 630.00,279.08 C630.00,280.84 630.44,281.01 633.54,280.43 C635.81,280.00 636.98,280.14 636.79,280.81 C636.42,282.14 644.73,290.00 646.52,290.00 C647.26,290.00 648.15,290.90 648.50,292.00 C648.85,293.10 649.54,294.00 650.04,294.00 C650.53,294.00 650.65,294.75 650.30,295.66 C649.90,296.70 650.06,297.08 650.72,296.67 C651.32,296.30 651.72,296.77 651.64,297.76 C651.56,298.73 652.20,299.51 653.07,299.52 C653.93,299.53 656.60,301.21 659.00,303.27 C663.62,307.22 663.87,307.32 668.38,307.02 C670.98,306.84 671.22,307.08 670.77,309.41 C670.50,310.83 670.66,312.00 671.14,312.00 C671.61,312.00 671.95,312.34 671.88,312.75 C671.48,315.32 672.05,316.20 673.41,315.08 C674.55,314.12 675.06,314.61 676.11,317.70 C676.83,319.79 677.43,321.95 677.46,322.50 C677.48,323.05 678.06,323.56 678.75,323.62 C679.44,323.69 680.42,323.81 680.93,323.88 C681.45,323.94 682.14,324.85 682.47,325.89 C682.80,326.93 684.30,328.30 685.81,328.92 C688.98,330.24 691.83,333.95 689.76,334.07 C689.07,334.11 690.24,334.78 692.37,335.56 C694.49,336.34 696.71,336.68 697.29,336.32 C697.96,335.90 698.09,336.34 697.63,337.53 C696.95,339.29 697.02,339.29 698.79,337.69 C699.82,336.76 701.17,336.00 701.79,336.00 C703.16,336.00 705.18,332.52 704.32,331.66 C703.23,330.56 706.19,328.00 708.56,328.00 C709.84,328.00 711.16,327.55 711.50,327.00 C712.29,325.72 715.00,325.69 715.00,326.96 C715.00,327.49 712.48,330.75 709.40,334.20 C700.85,343.79 700.12,345.79 697.66,366.50 C697.38,368.79 697.26,368.52 697.15,365.36 C697.05,362.70 696.46,361.01 695.50,360.64 C694.59,360.29 694.00,360.64 694.00,361.53 C694.00,362.34 693.44,362.89 692.75,362.75 C691.97,362.59 691.38,363.91 691.19,366.26 C690.97,368.95 689.93,370.95 687.56,373.26 C684.81,375.95 684.33,377.05 684.74,379.75 C685.20,382.80 685.04,383.00 682.24,383.00 C678.78,383.00 677.19,384.57 677.47,387.70 C677.57,388.92 677.39,389.74 677.07,389.54 C676.29,389.06 672.46,391.88 672.64,392.79 C672.72,393.18 671.91,395.21 670.85,397.30 C669.39,400.15 668.45,400.96 667.10,400.53 C665.84,400.13 663.71,401.50 659.99,405.10 C656.67,408.32 653.80,410.25 652.34,410.25 C651.05,410.25 650.00,410.64 650.00,411.12 C650.00,412.94 649.80,413.53 648.80,414.74 C648.24,415.42 647.39,415.74 646.92,415.45 C646.44,415.16 644.72,415.61 643.08,416.46 C641.44,417.31 639.23,418.00 638.16,418.00 C637.10,418.00 635.55,419.03 634.72,420.30 C633.59,422.02 632.13,422.66 628.86,422.85 C623.92,423.14 619.32,424.19 613.50,426.35 C611.30,427.16 609.35,427.42 609.17,426.92 C608.65,425.49 602.85,425.84 601.61,427.38 C601.00,428.14 598.36,429.03 595.75,429.36 C591.71,429.87 590.81,429.67 589.76,427.98 ZM 639.25 357.97 C636.91,356.86 635.00,355.84 635.00,355.71 C635.00,355.58 640.85,355.48 648.00,355.48 C655.15,355.49 661.00,355.78 661.00,356.13 C661.00,357.30 655.53,358.88 649.50,359.44 C644.72,359.89 642.64,359.59 639.25,357.97 ZM 611.67 353.98 C610.12,353.51 607.97,352.12 606.89,350.87 C605.44,349.20 603.71,348.56 600.22,348.42 C597.62,348.31 595.18,348.17 594.78,348.11 C594.39,348.05 593.39,346.76 592.57,345.25 C591.75,343.74 591.06,342.85 591.04,343.29 C591.02,343.72 590.17,343.63 589.15,343.08 C588.14,342.54 586.04,341.87 584.49,341.58 C582.94,341.30 581.21,340.61 580.64,340.04 C580.07,339.47 578.82,339.00 577.87,339.00 C576.91,339.00 575.87,338.21 575.55,337.25 C575.23,336.29 572.95,334.15 570.49,332.50 C568.02,330.85 566.00,329.18 566.00,328.78 C566.00,328.39 565.38,328.30 564.62,328.59 C563.78,328.91 562.40,327.77 561.12,325.69 C559.95,323.80 558.21,322.26 557.25,322.27 C553.50,322.28 553.00,321.90 553.00,319.07 C553.00,316.95 552.16,315.54 549.99,313.99 C548.33,312.81 547.19,311.50 547.45,311.08 C547.71,310.66 546.55,309.31 544.88,308.07 C543.21,306.84 542.09,305.58 542.38,305.29 C543.71,303.95 539.91,299.23 537.04,298.66 C534.14,298.08 534.00,297.82 534.00,293.05 C534.00,288.51 533.73,287.91 531.00,286.50 C529.35,285.65 527.94,284.51 527.88,283.97 C527.81,283.44 527.64,282.55 527.50,282.00 C527.36,281.45 527.19,280.33 527.12,279.50 C527.06,278.67 526.13,277.13 525.08,276.08 C522.19,273.19 521.11,270.70 520.86,266.39 C520.67,263.16 517.03,255.85 516.98,258.62 C516.94,260.93 515.03,256.15 515.02,253.70 C515.01,252.16 514.30,249.54 513.44,247.88 C512.58,246.22 511.95,243.88 512.05,242.68 C512.14,241.48 512.13,240.27 512.03,240.00 C511.92,239.73 511.72,238.47 511.58,237.22 C511.25,234.26 513.17,234.90 514.08,238.06 C521.85,265.02 530.50,282.34 546.97,303.96 C557.09,317.23 574.54,332.33 588.50,339.89 C597.91,344.98 605.65,348.02 617.00,351.09 C625.47,353.37 626.57,353.86 622.71,353.62 C620.08,353.46 617.69,353.70 617.40,354.16 C616.78,355.16 615.47,355.12 611.67,353.98 ZM 738.14 321.67 C736.22,319.36 734.00,313.17 734.00,310.13 C734.00,307.81 735.09,306.27 739.11,302.91 C744.13,298.70 744.21,298.55 743.62,294.22 C742.64,287.12 739.61,281.36 735.84,279.46 C730.41,276.72 726.01,271.90 723.06,265.44 C719.48,257.58 713.15,253.00 705.87,253.00 C701.72,253.00 700.37,253.57 695.79,257.28 C685.26,265.80 680.95,268.16 674.08,269.13 C666.99,270.13 663.91,271.69 661.41,275.50 C659.89,277.82 659.92,278.20 661.89,281.54 C663.05,283.51 664.00,286.24 664.00,287.62 C664.00,291.15 665.47,293.53 672.38,301.26 C679.01,308.67 688.52,315.00 693.02,315.00 C694.61,315.00 697.03,315.51 698.40,316.14 C700.39,317.04 701.60,316.94 704.35,315.64 C709.04,313.41 711.59,313.58 713.44,316.22 C715.20,318.73 715.51,322.00 714.00,322.00 C713.45,322.00 713.00,321.52 713.00,320.94 C713.00,320.36 712.55,320.16 712.00,320.50 C711.10,321.06 710.57,319.74 710.88,317.75 C710.95,317.34 710.33,317.00 709.50,317.00 C708.67,317.00 708.00,317.35 708.00,317.78 C708.00,318.21 706.70,319.05 705.11,319.65 C702.26,320.73 694.16,319.50 692.38,317.72 C691.99,317.32 690.82,317.00 689.77,317.00 C688.68,317.00 688.16,316.55 688.55,315.92 C689.00,315.19 687.19,314.93 682.86,315.10 L 676.50 315.36 L 676.55 311.71 C676.57,309.53 676.05,307.85 675.24,307.54 C674.45,307.23 674.17,307.47 674.57,308.11 C675.01,308.83 674.48,308.79 673.03,308.01 C671.52,307.21 670.98,306.20 671.32,304.88 C671.72,303.36 670.99,302.56 668.03,301.27 C665.19,300.04 663.95,298.76 663.18,296.22 C662.60,294.35 662.39,292.14 662.71,291.31 C663.07,290.39 662.10,288.79 660.19,287.15 C657.25,284.63 657.11,284.18 657.38,278.09 C657.62,272.84 658.08,271.35 659.94,269.85 C661.19,268.84 662.61,268.26 663.10,268.56 C663.60,268.87 664.00,268.71 664.00,268.22 C664.00,267.73 665.35,267.40 667.00,267.50 C668.65,267.60 670.00,267.30 670.00,266.84 C670.00,266.38 670.48,266.00 671.06,266.00 C671.64,266.00 671.84,266.45 671.50,267.00 C671.13,267.59 672.27,268.00 674.27,268.00 C676.89,268.00 677.98,267.41 679.04,265.42 C680.59,262.53 683.08,260.94 687.50,260.04 C689.85,259.56 690.57,258.83 690.82,256.66 C691.00,255.13 691.90,253.61 692.82,253.27 C693.74,252.93 695.57,251.84 696.88,250.83 C699.43,248.88 711.00,248.13 711.00,249.92 C711.00,250.43 712.46,251.34 714.25,251.95 C719.22,253.65 723.19,257.64 723.56,261.31 C723.73,263.06 723.90,264.77 723.94,265.09 C723.97,265.42 725.55,266.52 727.44,267.54 C729.33,268.56 730.70,269.68 730.48,270.03 C730.26,270.38 730.77,271.65 731.60,272.84 C732.73,274.45 733.75,274.85 735.56,274.39 C737.68,273.86 738.09,274.19 738.61,276.81 C739.03,278.90 739.96,280.02 741.61,280.44 C742.92,280.77 744.06,281.59 744.13,282.27 C744.20,282.95 744.43,284.85 744.63,286.50 C745.42,292.83 744.98,298.36 743.57,299.93 C742.76,300.82 742.42,302.07 742.82,302.71 C744.03,304.66 748.61,303.47 752.64,300.15 C754.74,298.42 756.98,297.00 757.62,297.00 C758.69,297.00 760.54,292.47 760.17,290.76 C760.08,290.36 761.59,289.36 763.53,288.55 C766.61,287.26 766.98,286.74 766.54,284.24 C766.10,281.75 766.43,281.29 769.19,280.45 C770.92,279.93 772.82,278.63 773.42,277.56 C774.01,276.50 775.62,274.53 777.00,273.19 C778.38,271.85 779.37,270.31 779.21,269.75 C779.05,269.20 779.68,267.91 780.61,266.87 C781.55,265.84 782.00,265.00 781.62,265.00 C781.24,265.00 781.41,264.10 782.00,263.00 C782.67,261.75 782.70,261.00 782.09,261.00 C780.87,261.00 782.85,254.82 784.41,253.77 C785.01,253.36 785.13,253.02 784.68,253.02 C784.23,253.01 784.57,252.29 785.44,251.42 C786.31,250.55 786.76,249.43 786.45,248.92 C786.14,248.41 786.36,248.00 786.94,248.00 C787.52,248.00 788.00,247.51 788.00,246.91 C788.00,246.31 788.82,244.77 789.83,243.49 C791.11,241.86 792.08,241.44 793.08,242.07 C794.20,242.78 794.08,242.99 792.50,243.06 C791.40,243.12 791.05,243.38 791.72,243.65 C792.65,244.03 792.59,244.70 791.46,246.42 C790.64,247.67 788.63,252.37 786.99,256.86 C780.79,273.85 777.67,278.69 759.13,300.00 C755.06,304.67 750.58,310.30 749.17,312.50 C746.35,316.91 740.99,323.00 739.93,323.00 C739.55,323.00 738.75,322.40 738.14,321.67 ZM 744.40 314.08 C745.28,313.35 746.00,311.61 746.00,310.21 C746.00,308.81 745.70,307.96 745.34,308.32 C744.98,308.69 744.13,308.52 743.45,307.96 C741.64,306.46 739.75,307.17 738.27,309.90 C737.16,311.94 737.20,312.57 738.55,314.05 C740.33,316.02 742.05,316.03 744.40,314.08 ZM 792.70 240.37 C792.35,240.02 792.51,238.91 793.05,237.91 C793.59,236.90 793.95,235.73 793.85,235.29 C793.17,232.25 797.52,225.00 800.03,225.00 C800.43,225.00 800.64,223.63 800.50,221.95 C800.35,220.28 800.84,218.31 801.57,217.57 C802.30,216.84 802.68,216.01 802.40,215.73 C802.12,215.46 802.97,214.38 804.28,213.35 C806.98,211.23 807.09,210.73 807.40,199.06 C807.54,193.85 808.06,190.48 808.76,190.25 C809.49,190.00 809.70,188.23 809.35,185.18 C808.83,180.71 808.94,180.44 811.87,179.18 C813.56,178.45 816.19,178.00 817.72,178.18 C820.04,178.45 820.55,179.03 820.81,181.75 C821.05,184.23 821.60,185.00 823.13,185.00 C825.42,185.00 827.50,183.16 827.50,181.13 C827.50,180.38 829.07,179.25 830.99,178.63 C833.16,177.93 834.62,176.75 834.85,175.50 C835.30,173.02 838.96,169.31 839.07,171.21 C839.11,171.92 839.96,170.70 840.95,168.50 C842.72,164.58 842.72,164.46 840.68,162.23 C839.54,160.98 838.50,159.18 838.36,158.24 C838.04,156.05 841.98,151.78 843.70,152.44 C844.42,152.71 845.00,152.50 845.00,151.97 C845.00,151.44 845.64,151.00 846.42,151.00 C847.20,151.00 848.37,149.42 849.00,147.49 C850.31,143.52 852.30,142.11 856.28,142.34 C859.21,142.51 860.15,144.03 860.85,149.75 C860.93,150.44 862.11,151.00 863.47,151.00 C865.19,151.00 866.41,151.88 867.44,153.88 C868.26,155.46 869.62,157.02 870.46,157.35 C872.29,158.05 872.48,161.12 870.80,162.80 C870.14,163.46 867.66,164.00 865.30,164.00 C860.92,164.00 860.61,164.34 860.95,168.65 C861.24,172.35 853.34,175.98 851.50,173.00 C850.46,171.31 849.01,171.88 847.84,174.45 C847.23,175.80 845.31,177.58 843.58,178.40 C841.52,179.37 840.37,180.68 840.26,182.19 C840.17,183.46 839.15,185.26 838.00,186.20 C836.85,187.13 835.97,188.18 836.04,188.53 C836.11,188.88 835.90,189.43 835.58,189.75 C835.26,190.07 835.00,189.47 835.00,188.42 C835.00,186.67 839.44,179.60 845.77,171.25 C847.73,168.67 847.91,168.00 846.66,168.00 C845.79,168.00 842.58,171.13 839.53,174.96 C833.85,182.09 832.99,182.85 824.74,188.15 C818.71,192.02 816.74,191.47 817.59,186.15 C818.23,182.13 816.98,180.03 815.28,182.26 C813.39,184.73 809.90,197.06 809.06,204.20 C808.03,212.98 808.25,212.36 800.71,228.25 C794.89,240.53 794.08,241.75 792.70,240.37 ZM 857.84 167.00 C859.06,165.35 861.56,163.37 863.41,162.60 C865.25,161.83 867.02,160.77 867.35,160.25 C867.67,159.72 865.95,157.87 863.53,156.13 C860.83,154.19 858.62,151.60 857.86,149.48 C856.25,145.03 854.99,145.09 852.50,149.75 C851.36,151.88 848.88,154.36 846.75,155.50 C842.38,157.84 842.11,158.71 845.41,159.97 C846.74,160.47 849.24,162.93 850.96,165.44 C852.68,167.95 854.44,170.00 854.86,170.00 C855.28,170.00 856.62,168.65 857.84,167.00 ZM 812.35 233.38 C812.66,232.34 813.64,228.54 814.53,224.93 C816.91,215.31 819.69,210.97 825.53,207.81 C830.69,205.01 835.00,200.82 835.00,198.61 C835.00,196.92 837.77,196.96 838.42,198.66 C838.70,199.39 838.11,200.78 837.11,201.74 C836.11,202.71 834.48,204.76 833.50,206.30 C832.44,207.95 831.13,208.88 830.30,208.56 C829.53,208.26 829.17,208.47 829.51,209.01 C829.84,209.56 829.28,210.00 828.25,210.00 C826.57,210.00 820.12,215.31 819.92,216.87 C819.87,217.22 819.72,218.40 819.58,219.50 C818.92,224.64 817.73,227.94 815.94,229.55 C814.87,230.52 814.00,231.89 814.00,232.60 C814.00,233.30 813.50,234.19 812.89,234.57 C812.17,235.01 811.98,234.59 812.35,233.38 Z" fill="rgb(251,252,251)"/>
</g>
</svg>